<svg xmlns="http://www.w3.org/2000/svg" width="500" height="500" viewBox="0 0 500 500">
<g>
<path d="M 244.00 356.31 C229.09,350.01 163.76,318.19 161.67,316.21 C160.10,314.72 157.96,311.83 156.91,309.79 C155.10,306.28 155.00,303.34 155.02,255.79 C155.04,209.04 155.17,205.22 156.89,201.50 C157.91,199.30 159.83,196.50 161.16,195.27 C164.14,192.53 240.47,156.35 245.80,155.16 C247.91,154.68 251.18,154.51 253.07,154.76 C257.82,155.42 335.87,192.51 339.20,195.70 C340.20,196.65 341.03,197.41 341.71,198.28 C345.08,202.57 345.00,209.57 345.00,255.94 C345.00,305.03 344.92,307.24 343.01,310.98 C341.91,313.13 339.55,315.97 337.76,317.29 C335.97,318.61 317.17,327.94 296.00,338.01 C261.25,354.53 256.92,356.35 251.50,356.63 C248.20,356.81 244.82,356.66 244.00,356.31 ZM 184.46 316.14 C186.13,317.16 189.35,317.99 191.60,318.00 C198.37,318.00 201.47,315.02 209.60,300.65 C213.60,293.58 217.07,287.59 217.32,287.34 C217.57,287.10 219.29,287.81 221.14,288.94 C227.19,292.63 235.40,291.13 239.81,285.52 C241.63,283.21 242.43,283.00 249.72,283.00 C257.00,283.00 257.85,283.22 260.08,285.63 C265.12,291.10 273.05,292.49 278.90,288.92 C281.61,287.27 282.46,287.12 283.12,288.18 C283.58,288.90 286.99,294.83 290.69,301.35 C298.46,315.06 301.71,318.00 309.08,318.00 C312.21,318.00 314.80,317.27 317.10,315.74 C321.00,313.15 325.00,305.98 325.00,301.56 C325.00,295.83 314.88,246.48 312.83,242.19 C311.70,239.83 309.47,236.93 307.88,235.76 C306.28,234.57 305.00,232.68 305.00,231.50 C305.00,227.24 302.66,225.64 295.83,225.20 C286.98,224.64 282.00,226.71 282.00,230.95 C282.00,234.75 280.25,234.99 279.82,231.25 L 279.50 228.50 L 252.00 228.22 C236.88,228.06 223.49,228.19 222.25,228.49 C220.67,228.87 220.00,229.78 220.00,231.52 C220.00,235.17 218.18,234.54 217.81,230.77 C217.41,226.62 214.36,225.03 206.70,225.01 C199.44,225.00 195.00,227.09 195.00,230.53 C195.00,231.89 194.20,233.80 193.21,234.79 C186.50,241.50 186.12,242.59 180.40,272.17 C176.56,291.98 175.10,301.64 175.55,304.28 C176.26,308.53 179.89,313.35 184.46,316.14 ZM 220.81 222.75 C221.98,223.68 229.52,224.00 250.57,224.00 C271.93,224.00 278.99,223.70 279.74,222.75 C280.28,222.06 281.75,217.23 283.01,212.00 C284.27,206.77 285.91,202.14 286.65,201.70 C288.44,200.64 288.37,195.56 286.55,194.04 C283.28,191.33 277.91,196.09 279.95,199.90 C280.79,201.48 280.30,202.40 277.09,205.30 C272.16,209.76 269.81,210.47 266.22,208.61 C262.39,206.63 253.00,193.77 254.01,191.90 C255.28,189.57 253.32,186.00 250.78,186.02 C246.86,186.04 244.30,189.26 246.01,192.01 C247.14,193.85 235.70,208.79 232.56,209.58 C227.88,210.75 218.29,203.19 220.12,199.78 C220.88,198.36 220.73,197.24 219.55,195.43 C217.79,192.74 216.80,192.50 213.93,194.04 C211.67,195.25 211.33,199.74 213.38,201.39 C214.14,202.00 215.77,206.77 217.00,212.00 C218.23,217.23 219.95,222.06 220.81,222.75 ZM 210.81 259.75 C210.53,263.16 210.21,263.53 207.31,263.81 C204.36,264.09 204.06,263.85 203.45,260.56 C202.97,258.04 202.25,257.00 200.97,257.00 C197.26,257.00 196.00,255.83 196.00,252.39 C196.00,249.18 196.19,249.00 199.50,249.00 C202.93,249.00 203.00,248.91 203.00,244.94 L 203.00 240.88 L 206.75 241.19 C210.30,241.48 210.52,241.70 210.81,245.25 C211.10,248.80 211.31,249.00 214.56,249.00 C217.82,249.00 218.00,249.18 218.00,252.50 C218.00,255.82 217.82,256.00 214.56,256.00 C211.31,256.00 211.10,256.20 210.81,259.75 ZM 277.55 279.55 C274.00,283.09 268.74,282.90 264.92,279.08 C259.30,273.45 262.43,265.42 270.68,264.32 C274.24,263.84 275.22,264.13 277.42,266.33 C280.96,269.87 281.01,276.08 277.55,279.55 ZM 234.55 279.55 C229.86,284.23 220.96,281.63 219.54,275.16 C217.68,266.70 228.04,260.61 234.35,266.45 C237.97,269.80 238.06,276.03 234.55,279.55 ZM 296.43 268.43 C294.48,270.38 293.99,270.38 291.22,268.44 C287.33,265.71 288.87,260.00 293.50,260.00 C297.78,260.00 299.60,265.25 296.43,268.43 ZM 308.80 256.80 C308.14,257.46 306.65,258.00 305.50,258.00 C302.82,258.00 301.00,256.18 301.00,253.50 C301.00,250.82 302.82,249.00 305.50,249.00 C309.49,249.00 311.61,253.99 308.80,256.80 ZM 284.95 256.56 C283.38,258.45 280.53,258.39 278.57,256.43 C275.15,253.01 277.66,248.60 282.69,249.18 C284.93,249.43 285.57,250.07 285.82,252.31 C286.00,253.86 285.61,255.77 284.95,256.56 ZM 297.30 244.90 C294.77,248.94 288.62,246.07 289.20,241.12 C289.46,238.88 290.04,238.45 293.22,238.19 C296.53,237.92 297.01,238.17 297.61,240.60 C297.99,242.09 297.84,244.03 297.30,244.90 ZM 266.82 254.75 C266.39,257.00 259.85,257.73 258.17,255.71 C256.52,253.71 257.72,253.00 262.74,253.00 C266.40,253.00 267.09,253.30 266.82,254.75 ZM 241.82 254.75 C241.25,257.76 233.00,257.45 233.00,254.42 C233.00,253.40 234.29,253.00 237.57,253.00 C241.39,253.00 242.09,253.29 241.82,254.75 Z" fill="rgba(0,74,173,1)"/>
<path d="M 220.81 222.75 C219.95,222.06 218.23,217.23 217.00,212.00 C215.77,206.77 214.14,202.00 213.38,201.39 C211.33,199.74 211.67,195.25 213.93,194.04 C216.80,192.50 217.79,192.74 219.55,195.43 C220.73,197.24 220.88,198.36 220.12,199.78 C218.29,203.19 227.88,210.75 232.56,209.58 C235.70,208.79 247.14,193.85 246.01,192.01 C244.30,189.26 246.86,186.04 250.78,186.02 C253.32,186.00 255.28,189.57 254.01,191.90 C253.00,193.77 262.39,206.63 266.22,208.61 C269.81,210.47 272.16,209.76 277.09,205.30 C280.30,202.40 280.79,201.48 279.95,199.90 C277.91,196.09 283.28,191.33 286.55,194.04 C288.37,195.56 288.44,200.64 286.65,201.70 C285.91,202.14 284.27,206.77 283.01,212.00 C281.75,217.23 280.28,222.06 279.74,222.75 C278.99,223.70 271.93,224.00 250.57,224.00 C229.52,224.00 221.98,223.68 220.81,222.75 ZM 281.00 233.93 C280.53,234.57 279.88,235.19 279.04,235.81 C276.18,237.93 275.25,238.00 250.35,238.00 C225.35,238.00 224.53,237.94 221.36,235.76 C220.50,235.17 219.81,234.57 219.27,233.94 C219.67,233.85 220.00,233.07 220.00,231.52 C220.00,229.78 220.67,228.87 222.25,228.49 C223.49,228.19 236.88,228.06 252.00,228.22 L 279.50 228.50 L 279.82 231.25 C280.02,233.03 280.52,233.90 281.00,233.93 ZM 295.83 225.20 C290.57,224.87 286.60,225.50 284.30,226.95 C286.58,225.48 290.51,224.86 295.83,225.20 ZM 215.78 226.84 C214.04,225.59 211.11,225.03 206.70,225.01 C211.16,225.03 214.06,225.57 215.78,226.84 Z" fill="rgba(254,214,0,1)"/>
<path d="M 184.46 316.14 C179.89,313.35 176.26,308.53 175.55,304.28 C175.10,301.64 176.56,291.98 180.40,272.17 C186.12,242.59 186.50,241.50 193.21,234.79 C194.20,233.80 195.00,231.89 195.00,230.53 C195.00,227.09 199.44,225.00 206.70,225.01 C214.19,225.03 217.41,226.64 217.80,230.53 C218.00,232.60 219.11,234.22 221.36,235.76 C224.53,237.94 225.35,238.00 250.35,238.00 C275.25,238.00 276.18,237.93 279.04,235.81 C281.12,234.27 282.00,232.77 282.00,230.76 C282.00,226.72 287.16,224.65 295.83,225.20 C302.66,225.64 305.00,227.24 305.00,231.50 C305.00,232.68 306.28,234.57 307.88,235.76 C309.47,236.93 311.70,239.83 312.83,242.19 C314.88,246.48 325.00,295.83 325.00,301.56 C325.00,305.98 321.00,313.15 317.10,315.74 C314.80,317.27 312.21,318.00 309.08,318.00 C301.71,318.00 298.46,315.06 290.69,301.35 C286.99,294.83 283.58,288.90 283.12,288.18 C282.46,287.12 281.61,287.27 278.90,288.92 C273.05,292.49 265.12,291.10 260.08,285.63 C257.85,283.22 257.00,283.00 249.72,283.00 C242.43,283.00 241.63,283.21 239.81,285.52 C235.40,291.13 227.19,292.63 221.14,288.94 C219.29,287.81 217.57,287.10 217.32,287.34 C217.07,287.59 213.60,293.58 209.60,300.65 C201.47,315.02 198.37,318.00 191.60,318.00 C189.35,317.99 186.13,317.16 184.46,316.14 ZM 234.55 279.55 C238.06,276.03 237.97,269.80 234.35,266.45 C228.04,260.61 217.68,266.70 219.54,275.16 C220.96,281.63 229.86,284.23 234.55,279.55 ZM 277.55 279.55 C281.01,276.08 280.96,269.87 277.42,266.33 C275.22,264.13 274.24,263.84 270.68,264.32 C262.43,265.42 259.30,273.45 264.92,279.08 C268.74,282.90 274.00,283.09 277.55,279.55 ZM 296.43 268.43 C299.60,265.25 297.78,260.00 293.50,260.00 C288.87,260.00 287.33,265.71 291.22,268.44 C293.99,270.38 294.48,270.38 296.43,268.43 ZM 210.81 259.75 C211.10,256.20 211.31,256.00 214.56,256.00 C217.82,256.00 218.00,255.82 218.00,252.50 C218.00,249.18 217.82,249.00 214.56,249.00 C211.31,249.00 211.10,248.80 210.81,245.25 C210.52,241.70 210.30,241.48 206.75,241.19 L 203.00 240.88 L 203.00 244.94 C203.00,248.91 202.93,249.00 199.50,249.00 C196.19,249.00 196.00,249.18 196.00,252.39 C196.00,255.83 197.26,257.00 200.97,257.00 C202.25,257.00 202.97,258.04 203.45,260.56 C204.06,263.85 204.36,264.09 207.31,263.81 C210.21,263.53 210.53,263.16 210.81,259.75 ZM 284.95 256.56 C285.61,255.77 286.00,253.86 285.82,252.31 C285.57,250.07 284.93,249.43 282.69,249.18 C277.66,248.60 275.15,253.01 278.57,256.43 C280.53,258.39 283.38,258.45 284.95,256.56 ZM 308.80 256.80 C311.61,253.99 309.49,249.00 305.50,249.00 C302.82,249.00 301.00,250.82 301.00,253.50 C301.00,256.18 302.82,258.00 305.50,258.00 C306.65,258.00 308.14,257.46 308.80,256.80 ZM 241.82 254.75 C242.09,253.29 241.39,253.00 237.57,253.00 C234.29,253.00 233.00,253.40 233.00,254.42 C233.00,257.45 241.25,257.76 241.82,254.75 ZM 266.82 254.75 C267.09,253.30 266.40,253.00 262.74,253.00 C257.72,253.00 256.52,253.71 258.17,255.71 C259.85,257.73 266.39,257.00 266.82,254.75 ZM 297.30 244.90 C297.84,244.03 297.99,242.09 297.61,240.60 C297.01,238.17 296.53,237.92 293.22,238.19 C290.04,238.45 289.46,238.88 289.20,241.12 C288.62,246.07 294.77,248.94 297.30,244.90 Z" fill="rgba(254,254,254,1)"/>
</g>
</svg>