<?xml version="1.0" encoding="UTF-8"?>
<svg version="1.1" xmlns="http://www.w3.org/2000/svg" width="500" height="500">
<path d="M0 0 C165 0 330 0 500 0 C500 165 500 330 500 500 C335 500 170 500 0 500 C0 335 0 170 0 0 Z " fill="#FEFEFE" transform="translate(0,0)"/>
<path d="M0 0 C0.41507812 -0.42410156 0.83015625 -0.84820312 1.2578125 -1.28515625 C14.27180607 -13.67295347 29.49994647 -16.7795124 46.8828125 -16.44140625 C61.23025106 -15.7353228 75.57758362 -8.49076189 85.37890625 1.9921875 C90.74214689 8.63485181 94.96827332 16.02555305 98 24 C98.35707031 24.83789062 98.71414062 25.67578125 99.08203125 26.5390625 C103.50238385 43.20473231 99.93642974 60.97371389 91.52734375 75.609375 C89.57251411 78.66910835 87.45509918 81.32827442 85 84 C86.45579378 87.1482437 88.24658475 89.78198879 90.3125 92.5625 C100.25132294 106.66320505 103.19564669 122.13574675 100.3125 139.1875 C96.37119995 155.77954638 86.99271496 169.03497759 72.75 178.3125 C58.63065055 186.63164721 42.79283482 189.22544882 26.875 185.375 C16.61380209 182.70511266 8.21208367 177.63555185 0 171 C-0.43828125 171.43570313 -0.8765625 171.87140625 -1.328125 172.3203125 C-12.68134105 182.98125928 -26.51478163 187.59137085 -41.875 187.4375 C-42.93348145 187.42992676 -43.99196289 187.42235352 -45.08251953 187.41455078 C-52.64779022 187.25477861 -59.17998345 186.48602757 -66 183 C-67.27617188 182.36384766 -67.27617188 182.36384766 -68.578125 181.71484375 C-84.01855764 173.21313314 -93.92574917 160.10593173 -99.81640625 143.73046875 C-103.89119226 128.82758005 -100.7705529 112.18079341 -93.6953125 98.8125 C-91.14577082 94.5828456 -88.20287105 90.75247614 -85 87 C-86.34326386 84.10878446 -87.89009623 81.73884307 -89.875 79.25 C-92.83510885 75.34150676 -95.07732514 71.50477953 -97 67 C-97.37382813 66.19691406 -97.74765625 65.39382813 -98.1328125 64.56640625 C-103.1933215 52.09207463 -102.83794362 36.3238531 -98.1875 23.77734375 C-97.795625 22.86082031 -97.40375 21.94429687 -97 21 C-96.649375 20.13503906 -96.29875 19.27007812 -95.9375 18.37890625 C-89.32536781 3.66232037 -76.84999693 -7.06000123 -62 -13 C-38.66715547 -21.17308679 -19.28913227 -12.85942151 0 0 Z " fill="#EFC44A" transform="translate(119,192)"/>
<path d="M0 0 C9.67603004 7.36679262 16.02342962 17.45702903 20.32421875 28.76953125 C20.85982422 30.02636719 20.85982422 30.02636719 21.40625 31.30859375 C25.8266026 47.97426356 22.26064849 65.74324514 13.8515625 80.37890625 C11.89673286 83.4386396 9.77931793 86.09780567 7.32421875 88.76953125 C8.78001253 91.91777495 10.5708035 94.55152004 12.63671875 97.33203125 C22.57554169 111.4327363 25.51986544 126.905278 22.63671875 143.95703125 C18.6954187 160.54907763 9.31693371 173.80450884 -4.92578125 183.08203125 C-19.04207086 191.3993756 -34.88575101 193.99905597 -50.80078125 190.14453125 C-65.88020077 186.18106385 -78.28825774 176.97629198 -86.67578125 163.76953125 C-93.88611949 150.38128196 -94.98290518 139.63091704 -94.67578125 124.76953125 C-94.24007812 125.14464844 -93.804375 125.51976562 -93.35546875 125.90625 C-92.10980956 126.97665411 -90.8581031 128.04004692 -89.6015625 129.09765625 C-87.67578125 130.76953125 -87.67578125 130.76953125 -86.15625 132.31640625 C-83.31269356 135.10512827 -81.81243097 135.76071514 -77.80078125 136.01953125 C-74.39988944 135.33528188 -72.47318783 133.99755981 -69.92285156 131.68359375 C-69.22647583 131.05259766 -68.5301001 130.42160156 -67.81262207 129.77148438 C-64.35430043 126.53146867 -60.95888384 123.23505232 -57.59765625 119.89453125 C-56.863797 119.16637207 -56.12993774 118.43821289 -55.37384033 117.68798828 C-53.83639001 116.1599144 -52.30033407 114.63043639 -50.765625 113.09960938 C-48.42504021 110.76879331 -46.07399452 108.44886719 -43.72265625 106.12890625 C-42.2219988 104.63477462 -40.72197664 103.14000458 -39.22265625 101.64453125 C-38.17570587 100.61610107 -38.17570587 100.61610107 -37.10760498 99.56689453 C-30.43504129 92.86373876 -25.7125107 85.75240409 -25.36328125 76.01953125 C-25.54352718 68.05266107 -27.47805476 61.83712519 -32.67578125 55.76953125 C-41.05568103 68.01394792 -45.9247398 80.60388837 -45.73828125 95.70703125 C-45.72925781 96.66480469 -45.72023437 97.62257813 -45.7109375 98.609375 C-45.69933594 99.32222656 -45.68773437 100.03507812 -45.67578125 100.76953125 C-46.33578125 100.76953125 -46.99578125 100.76953125 -47.67578125 100.76953125 C-48.66578125 96.80953125 -49.65578125 92.84953125 -50.67578125 88.76953125 C-51.33578125 88.76953125 -51.99578125 88.76953125 -52.67578125 88.76953125 C-53.99578125 94.04953125 -55.31578125 99.32953125 -56.67578125 104.76953125 C-57.66578125 104.43953125 -58.65578125 104.10953125 -59.67578125 103.76953125 C-59.34578125 98.81953125 -59.01578125 93.86953125 -58.67578125 88.76953125 C-60.65578125 94.04953125 -62.63578125 99.32953125 -64.67578125 104.76953125 C-65.66578125 104.76953125 -66.65578125 104.76953125 -67.67578125 104.76953125 C-67.2663815 98.00737677 -66.10624316 92.09790377 -63.67578125 85.76953125 C-69.00023811 90.34109461 -69.00023811 90.34109461 -74.05078125 95.20703125 C-75.67578125 96.76953125 -75.67578125 96.76953125 -77.67578125 96.76953125 C-77.17825458 91.19308653 -73.76245328 87.81738933 -70.26953125 83.76171875 C-67.06419394 79.84822553 -65.99171754 76.96931606 -65.67578125 71.76953125 C-66.37445313 71.57617188 -67.073125 71.3828125 -67.79296875 71.18359375 C-69.15808594 70.79300781 -69.15808594 70.79300781 -70.55078125 70.39453125 C-71.90816406 70.01167969 -71.90816406 70.01167969 -73.29296875 69.62109375 C-75.67578125 68.76953125 -75.67578125 68.76953125 -77.67578125 66.76953125 C-77.67578125 65.44953125 -77.67578125 64.12953125 -77.67578125 62.76953125 C-76.19078125 63.26453125 -76.19078125 63.26453125 -74.67578125 63.76953125 C-67.88087717 64.34876898 -60.66389708 64.40344831 -54.67578125 60.76953125 C-52.5095913 58.31632113 -51.08723913 55.70868472 -49.67578125 52.76953125 C-49.07765625 51.61453125 -48.47953125 50.45953125 -47.86328125 49.26953125 C-47.47140625 48.44453125 -47.07953125 47.61953125 -46.67578125 46.76953125 C-48.98198163 44.46333087 -54.68370455 45.34357531 -57.87963867 45.30102539 C-64.05755176 45.40389356 -68.28101744 46.90927208 -73.4765625 50.359375 C-75.65192892 51.75423695 -77.10554755 52.54305574 -79.67578125 52.76953125 C-81.35854135 51.58170059 -83.03637088 50.38444608 -84.66015625 49.1171875 C-88.03179835 46.86289191 -91.79731812 45.85127947 -95.67578125 44.76953125 C-93.54509555 27.13530355 -87.66868464 12.36304453 -73.67578125 0.76953125 C-50.71901754 -15.79234449 -23.31637978 -15.9973368 0 0 Z " fill="#53E527" transform="translate(196.67578125,187.23046875)"/>
<path d="M0 0 C9.67603004 7.36679262 16.02342962 17.45702903 20.32421875 28.76953125 C20.85982422 30.02636719 20.85982422 30.02636719 21.40625 31.30859375 C25.80903876 47.90804412 22.29376135 65.71896341 13.91796875 80.3125 C11.66782602 83.78147005 9.143884 86.74846134 6.32421875 89.76953125 C5.54046875 89.23328125 4.75671875 88.69703125 3.94921875 88.14453125 C-5.02444484 82.20421874 -13.93693829 76.68921822 -24.67578125 74.76953125 C-24.8459375 73.98449219 -25.01609375 73.19945312 -25.19140625 72.390625 C-26.62471097 66.17709657 -28.160995 61.10231039 -31.67578125 55.76953125 C-41.36735011 67.25583509 -45.92515792 80.57002116 -45.73828125 95.70703125 C-45.72925781 96.66480469 -45.72023437 97.62257813 -45.7109375 98.609375 C-45.69933594 99.32222656 -45.68773437 100.03507812 -45.67578125 100.76953125 C-46.33578125 100.76953125 -46.99578125 100.76953125 -47.67578125 100.76953125 C-48.66578125 96.80953125 -49.65578125 92.84953125 -50.67578125 88.76953125 C-51.33578125 88.76953125 -51.99578125 88.76953125 -52.67578125 88.76953125 C-53.99578125 94.04953125 -55.31578125 99.32953125 -56.67578125 104.76953125 C-57.66578125 104.43953125 -58.65578125 104.10953125 -59.67578125 103.76953125 C-59.34578125 98.81953125 -59.01578125 93.86953125 -58.67578125 88.76953125 C-60.65578125 94.04953125 -62.63578125 99.32953125 -64.67578125 104.76953125 C-65.66578125 104.76953125 -66.65578125 104.76953125 -67.67578125 104.76953125 C-67.2663815 98.00737677 -66.10624316 92.09790377 -63.67578125 85.76953125 C-69.00023811 90.34109461 -69.00023811 90.34109461 -74.05078125 95.20703125 C-75.67578125 96.76953125 -75.67578125 96.76953125 -77.67578125 96.76953125 C-77.17825458 91.19308653 -73.76245328 87.81738933 -70.26953125 83.76171875 C-67.06419394 79.84822553 -65.99171754 76.96931606 -65.67578125 71.76953125 C-66.37445313 71.57617188 -67.073125 71.3828125 -67.79296875 71.18359375 C-69.15808594 70.79300781 -69.15808594 70.79300781 -70.55078125 70.39453125 C-71.90816406 70.01167969 -71.90816406 70.01167969 -73.29296875 69.62109375 C-75.67578125 68.76953125 -75.67578125 68.76953125 -77.67578125 66.76953125 C-77.67578125 65.44953125 -77.67578125 64.12953125 -77.67578125 62.76953125 C-76.19078125 63.26453125 -76.19078125 63.26453125 -74.67578125 63.76953125 C-67.88087717 64.34876898 -60.66389708 64.40344831 -54.67578125 60.76953125 C-52.5095913 58.31632113 -51.08723913 55.70868472 -49.67578125 52.76953125 C-49.07765625 51.61453125 -48.47953125 50.45953125 -47.86328125 49.26953125 C-47.47140625 48.44453125 -47.07953125 47.61953125 -46.67578125 46.76953125 C-48.98198163 44.46333087 -54.68370455 45.34357531 -57.87963867 45.30102539 C-64.05755176 45.40389356 -68.28101744 46.90927208 -73.4765625 50.359375 C-75.65192892 51.75423695 -77.10554755 52.54305574 -79.67578125 52.76953125 C-81.35854135 51.58170059 -83.03637088 50.38444608 -84.66015625 49.1171875 C-88.03179835 46.86289191 -91.79731812 45.85127947 -95.67578125 44.76953125 C-93.54509555 27.13530355 -87.66868464 12.36304453 -73.67578125 0.76953125 C-50.71901754 -15.79234449 -23.31637978 -15.9973368 0 0 Z " fill="#27B2F3" transform="translate(196.67578125,187.23046875)"/>
<path d="M0 0 C0.14695313 0.75023437 0.29390625 1.50046875 0.4453125 2.2734375 C2.99354931 13.90159859 7.44364236 21.13857946 16.48046875 28.84765625 C22.31149434 33.82888896 27.48294767 39.41352304 32.45703125 45.23828125 C33.91424425 47.03411373 33.91424425 47.03411373 35.69921875 48.23046875 C37.85606375 51.16455519 37.16953841 54.51823244 37 58 C36.70440679 71.9958238 41.22734172 85.59344031 50.4375 96.375 C51.283125 97.24125 52.12875 98.1075 53 99 C49.65345985 106.78070584 40.49565633 110.94282852 33 114 C25.65350407 116.74378068 18.94046331 117.51579133 11.125 117.4375 C10.06651855 117.42992676 9.00803711 117.42235352 7.91748047 117.41455078 C0.35220978 117.25477861 -6.17998345 116.48602757 -13 113 C-14.27617188 112.36384766 -14.27617188 112.36384766 -15.578125 111.71484375 C-31.01855764 103.21313314 -40.92574917 90.10593173 -46.81640625 73.73046875 C-50.85000973 58.97819868 -47.88755618 42.12997583 -40.78125 28.91015625 C-32.65144341 15.62790644 -16.96178233 0 0 0 Z " fill="#FA2773" transform="translate(66,262)"/>
<path d="M0 0 C2.44534816 1.40085271 4.18958721 2.62708721 6.1875 4.625 C9.68852077 4.27415144 12.00016693 2.47153358 14.875 0.5625 C22.22449072 -3.59026102 29.9895752 -3.31916853 38.1875 -2.375 C39.1775 -1.385 39.1775 -1.385 40.1875 -0.375 C39.08996546 1.73286771 37.9848604 3.83613454 36.875 5.9375 C36.56626953 6.53240234 36.25753906 7.12730469 35.93945312 7.74023438 C33.36770754 12.58594447 31.91852938 15.03768646 26.6875 16.8125 C21.61121531 17.93323818 16.35451774 18.19262069 11.1875 17.625 C10.1975 16.965 9.2075 16.305 8.1875 15.625 C8.44425913 18.12005992 8.44425913 18.12005992 10.1875 20.625 C13.43339962 22.00074553 16.75448276 22.84592044 20.1875 23.625 C21.10676097 27.21681438 21.35924253 28.25164667 19.75 31.75 C17.05239385 36.06237039 13.95172868 40.11073703 10.89453125 44.171875 C9.04397551 46.58507248 9.04397551 46.58507248 8.1875 49.625 C13.51195686 45.05343664 13.51195686 45.05343664 18.5625 40.1875 C20.1875 38.625 20.1875 38.625 22.1875 38.625 C21.50786523 42.96674442 20.62901215 47.22203519 19.625 51.5 C19.35558594 52.65242188 19.08617187 53.80484375 18.80859375 54.9921875 C18.60363281 55.86101562 18.39867187 56.72984375 18.1875 57.625 C19.1775 57.625 20.1675 57.625 21.1875 57.625 C21.2803125 56.4803125 21.2803125 56.4803125 21.375 55.3125 C22.53237791 50.05978486 24.85947995 45.4528497 27.1875 40.625 C27.5175 40.625 27.8475 40.625 28.1875 40.625 C27.8575 45.905 27.5275 51.185 27.1875 56.625 C27.8475 56.955 28.5075 57.285 29.1875 57.625 C29.30867188 56.90054688 29.42984375 56.17609375 29.5546875 55.4296875 C30.43689579 50.34002427 31.35192347 45.47616654 33.1875 40.625 C34.6725 41.12 34.6725 41.12 36.1875 41.625 C37.1775 47.565 37.1775 47.565 38.1875 53.625 C38.8475 53.625 39.5075 53.625 40.1875 53.625 C40.06890625 52.59761719 39.9503125 51.57023437 39.828125 50.51171875 C38.92840798 41.43215689 39.41515104 35.08768397 43.1875 26.625 C43.435 25.490625 43.6825 24.35625 43.9375 23.1875 C45.96735413 17.40241574 49.66899842 12.60818014 53.1875 7.625 C59.31800371 13.40157772 61.11731927 20.12313242 61.5 28.3125 C61.19290991 45.58631744 44.52875365 57.49523806 33.25683594 68.79589844 C30.92182174 71.14074427 28.59768565 73.49605082 26.2734375 75.8515625 C24.78190723 77.34961299 23.28974246 78.84703207 21.796875 80.34375 C21.10720642 81.04576538 20.41753784 81.74778076 19.70697021 82.47106934 C15.63290859 86.52635764 12.52310855 88.98913278 6.76953125 90.0859375 C2.87290558 89.39032203 0.61792929 86.91627391 -2.125 84.25 C-2.67478516 83.74210937 -3.22457031 83.23421875 -3.79101562 82.7109375 C-5.18057567 81.39905472 -6.50257391 80.01640475 -7.8125 78.625 C-7.8125 77.965 -7.8125 77.305 -7.8125 76.625 C-8.39878174 76.36992676 -8.98506348 76.11485352 -9.58911133 75.85205078 C-12.03973085 74.49959512 -13.50689472 73.05848475 -15.38671875 70.9921875 C-16.05010254 70.27232666 -16.71348633 69.55246582 -17.39697266 68.81079102 C-18.09097168 68.04822998 -18.7849707 67.28566895 -19.5 66.5 C-23.80635212 61.8232142 -28.02551505 57.24303629 -32.9375 53.1875 C-39.45743032 47.63994935 -44.26291049 39.51591254 -45.0625 30.9453125 C-45.35145734 23.84779788 -44.4453973 17.81438058 -40.8125 11.625 C-39.52222181 10.24995901 -38.19716612 8.90494347 -36.8125 7.625 C-32.33910876 14.64456676 -30.05358744 20.68140286 -29.13671875 28.97265625 C-28.96644651 31.59659338 -28.96644651 31.59659338 -27.8125 33.625 C-27.57407315 39.34724444 -28.17215938 44.941977 -28.8125 50.625 C-28.4825 50.625 -28.1525 50.625 -27.8125 50.625 C-26.8225 46.995 -25.8325 43.365 -24.8125 39.625 C-23.4925 39.625 -22.1725 39.625 -20.8125 39.625 C-20.1525 44.575 -19.4925 49.525 -18.8125 54.625 C-17.3275 55.12 -17.3275 55.12 -15.8125 55.625 C-16.1425 50.345 -16.4725 45.065 -16.8125 39.625 C-16.1525 39.625 -15.4925 39.625 -14.8125 39.625 C-12.3375 48.04 -12.3375 48.04 -9.8125 56.625 C-9.4825 56.625 -9.1525 56.625 -8.8125 56.625 C-9.36131057 50.27280958 -9.97761613 43.94626362 -10.8125 37.625 C-7.16437383 39.09550019 -5.48357205 41.03672271 -3.1875 44.1875 C-0.94870634 47.43310703 -0.94870634 47.43310703 2.1875 49.625 C0.08557053 42.92509981 -3.30713142 37.48442841 -7.16796875 31.67578125 C-8.82904616 28.5943051 -9.1999565 27.04859105 -8.8125 23.625 C-6.07224896 21.9123431 -3.84670172 21.48550413 -0.6875 21.25 C3.22235272 21.08637782 3.22235272 21.08637782 4.6875 18.5625 C4.8525 17.923125 5.0175 17.28375 5.1875 16.625 C4.1975 17.12 4.1975 17.12 3.1875 17.625 C-3.90708152 18.2819057 -10.38463768 16.71037391 -16.8125 13.625 C-19.57587483 10.76113881 -20.71290186 7.60314634 -22 3.875 C-22.34417969 2.89015625 -22.68835938 1.9053125 -23.04296875 0.890625 C-23.29691406 0.14296875 -23.55085938 -0.6046875 -23.8125 -1.375 C-16.32299865 -3.87150045 -7.05794721 -3.50833633 0 0 Z " fill="#FCFCFC" transform="translate(110.8125,234.375)"/>
<path d="M0 0 C4.00594152 0.6162987 6.72993881 2.70399959 10 5 C10.99 5.66 11.98 6.32 13 7 C12.44611752 11.14304096 11.112919 13.56684276 8.6875 16.9375 C2.29839495 26.63267173 -0.20494669 38.39931816 -0.0625 49.9375 C-0.05347656 50.89527344 -0.04445312 51.85304688 -0.03515625 52.83984375 C-0.02355469 53.55269531 -0.01195312 54.26554687 0 55 C-0.66 55 -1.32 55 -2 55 C-2.99 51.04 -3.98 47.08 -5 43 C-5.66 43 -6.32 43 -7 43 C-8.32 48.28 -9.64 53.56 -11 59 C-12.485 58.505 -12.485 58.505 -14 58 C-13.67 53.05 -13.34 48.1 -13 43 C-14.98 48.28 -16.96 53.56 -19 59 C-19.99 59 -20.98 59 -22 59 C-21.59060025 52.23784552 -20.43046191 46.32837252 -18 40 C-23.32445686 44.57156336 -23.32445686 44.57156336 -28.375 49.4375 C-30 51 -30 51 -32 51 C-31.50247333 45.42355528 -28.08667203 42.04785808 -24.59375 37.9921875 C-21.38841269 34.07869428 -20.31593629 31.19978481 -20 26 C-20.69867188 25.80664062 -21.39734375 25.61328125 -22.1171875 25.4140625 C-23.02726562 25.15367187 -23.93734375 24.89328125 -24.875 24.625 C-26.23238281 24.24214844 -26.23238281 24.24214844 -27.6171875 23.8515625 C-30 23 -30 23 -32 21 C-32 19.68 -32 18.36 -32 17 C-31.01 17.33 -30.02 17.66 -29 18 C-22.20258271 18.57945197 -14.99175334 18.63136566 -9 15 C-6.84304585 12.550671 -5.4451153 9.9114823 -4 7 C-3.23588776 5.66280357 -2.46553531 4.32914366 -1.6875 3 C-1.130625 2.01 -0.57375 1.02 0 0 Z " fill="#2BB4F4" transform="translate(151,233)"/>
<path d="M0 0 C0.43570313 0.37511719 0.87140625 0.75023437 1.3203125 1.13671875 C2.56597169 2.20712286 3.81767815 3.27051567 5.07421875 4.328125 C7 6 7 6 8.51953125 7.546875 C11.36308769 10.33559702 12.86335028 10.99118389 16.875 11.25 C22.75791015 10.09825943 26.67215862 5.50342065 30.60546875 1.2734375 C32 0 32 0 34 0 C34.67453308 17.74396731 32.57716378 33.12115631 20.625 47.1875 C19.75875 48.115625 18.8925 49.04375 18 50 C13.48788797 46.57568674 10.52359313 43.2649405 7.8125 38.25 C7.29997681 37.32682983 7.29997681 37.32682983 6.77709961 36.38500977 C4.25958496 31.74191794 2.23536217 27.13543116 1 22 C0.814375 21.27554687 0.62875 20.55109375 0.4375 19.8046875 C-0.16834657 15.92077822 -0.10525518 12.11110989 -0.0625 8.1875 C-0.05573242 7.00510742 -0.05573242 7.00510742 -0.04882812 5.79882812 C-0.03711312 3.86585239 -0.01917998 1.93291607 0 0 Z " fill="#522413" transform="translate(102,312)"/>
<path d="M0 0 C5.60722611 4.10425829 8.51131419 9.09874042 12 15 C12.5775 15.94875 13.155 16.8975 13.75 17.875 C16.4064578 24.5161445 18.28089001 31.81724109 18 39 C17.34773438 39.24234375 16.69546875 39.4846875 16.0234375 39.734375 C10.05094805 42.00208553 10.05094805 42.00208553 4.625 45.3125 C2 47 2 47 0 47 C-2 46 -2 46 -4.6875 44.125 C-8.63064307 41.59543652 -12.53308921 40.31029383 -17 39 C-15.2036101 24.13250988 -11.20398822 10.58973448 0 0 Z " fill="#258B47" transform="translate(118,193)"/>
<path d="M0 0 C8 0 8 0 10.27734375 2.046875 C10.82519531 2.93890625 11.37304688 3.8309375 11.9375 4.75 C12.78634766 6.07257813 12.78634766 6.07257813 13.65234375 7.421875 C14.82800372 9.67096363 15.5424474 11.52110745 16 14 C16.66 14 17.32 14 18 14 C18.27585937 13.27425781 18.55171875 12.54851562 18.8359375 11.80078125 C19.94861853 9.1236259 21.1455679 6.67939261 22.625 4.1875 C23.07101562 3.39730469 23.51703125 2.60710937 23.9765625 1.79296875 C26 0 26 0 34 0 C34 10.23 34 20.46 34 31 C30.7 31 27.4 31 24 31 C23.67 27.37 23.34 23.74 23 20 C22.01 21.98 21.02 23.96 20 26 C17.75 26.375 17.75 26.375 15 26 C12.6875 23 12.6875 23 11 20 C10.67 23.63 10.34 27.26 10 31 C6.7 31 3.4 31 0 31 C0 20.77 0 10.54 0 0 Z " fill="#FB2B76" transform="translate(308,204)"/>
<path d="M0 0 C2.64 0 5.28 0 8 0 C9.98436715 2.26469838 11.07885568 3.82606999 12.375 6.4375 C14.43846594 10.91872145 14.43846594 10.91872145 18 14 C18.3403125 13.0409375 18.3403125 13.0409375 18.6875 12.0625 C20.48565826 7.86679739 22.73904021 3.96099444 25 0 C27.97 0 30.94 0 34 0 C34 10.23 34 20.46 34 31 C30.7 31 27.4 31 24 31 C23.67 27.37 23.34 23.74 23 20 C22.443125 20.99 21.88625 21.98 21.3125 23 C19 26 19 26 16.4375 26.6875 C14 26 14 26 12.1875 23.5 C11.795625 22.675 11.40375 21.85 11 21 C10.67 24.3 10.34 27.6 10 31 C6.7 31 3.4 31 0 31 C0 20.77 0 10.54 0 0 Z " fill="#FB2B76" transform="translate(433,204)"/>
<path d="M0 0 C0.22042969 1.12535156 0.22042969 1.12535156 0.4453125 2.2734375 C2.92862411 13.60533069 7.10043347 21.08268586 16.2421875 28.30859375 C16.82226562 28.86675781 17.40234375 29.42492187 18 30 C18 30.99 18 31.98 18 33 C-0.90331417 33.66980247 -15.04883511 28.28011994 -30 17 C-28.49563889 12.70182541 -25.31492305 10.82023859 -21.625 8.5 C-21.00592773 8.10562744 -20.38685547 7.71125488 -19.74902344 7.30493164 C-13.9430461 3.73584118 -6.96460832 0 0 0 Z " fill="#EC1F22" transform="translate(66,262)"/>
<path d="M0 0 C6.21112125 0.46600798 10.70295271 1.92064779 16.1875 4.8125 C16.87263672 5.15603516 17.55777344 5.49957031 18.26367188 5.85351562 C22.21022662 7.87807162 25.62420635 10.08305209 29 13 C28.44979125 16.70581774 27.17486121 18.10129402 24.25 20.375 C10.97775911 30.18675201 -1.91136745 32.41728442 -18 32 C-16.50215434 28.43255038 -14.43441784 26.31491237 -11.625 23.6875 C-4.26876879 16.42557945 -2.18480655 10.07990296 0 0 Z " fill="#0FA126" transform="translate(172,262)"/>
<path d="M0 0 C3.3 0 6.6 0 10 0 C10.33 2.31 10.66 4.62 11 7 C11.37769531 6.4946875 11.75539062 5.989375 12.14453125 5.46875 C14.85029236 2.27506476 16.66568415 0.21284663 20.9140625 -0.46484375 C23.63959003 -0.44019428 26.29263273 -0.30843425 29 0 C27.46356148 3.68069887 25.21849055 5.98775204 22.375 8.75 C21.55773437 9.54921875 20.74046875 10.3484375 19.8984375 11.171875 C19.27195313 11.77515625 18.64546875 12.3784375 18 13 C19.72841066 17.02302481 22.43130881 20.28077291 25.125 23.6875 C30 29.87190083 30 29.87190083 30 31 C25.87121763 31.54914839 22.10708125 31.78254475 18 31 C14.9455896 28.40147175 12.96019415 25.4786544 11 22 C10.67 24.97 10.34 27.94 10 31 C6.7 31 3.4 31 0 31 C0 20.77 0 10.54 0 0 Z " fill="#FB2B76" transform="translate(228,204)"/>
<path d="M0 0 C4.5478125 -0.12375 4.5478125 -0.12375 9.1875 -0.25 C10.60712036 -0.30462402 10.60712036 -0.30462402 12.05541992 -0.36035156 C16.11219345 -0.41374716 18.42776555 -0.33810454 21.98828125 1.765625 C25.80770693 6.00778323 26.3969866 9.16450902 26.25 14.75 C25.77282845 19.04454396 24.31002545 21.93434468 20.96875 24.65234375 C16.8175158 26.53678559 13.18083374 26.32474121 8.6875 26.1875 C5.820625 26.125625 2.95375 26.06375 0 26 C0 17.42 0 8.84 0 0 Z " fill="#DACE2B" transform="translate(324,262)"/>
<path d="M0 0 C2.97 0 5.94 0 9 0 C9 2.97 9 5.94 9 9 C9.66 9 10.32 9 11 9 C11.226875 8.443125 11.45375 7.88625 11.6875 7.3125 C13.52929573 4.06743133 14.95315974 2.23849489 18 0 C21.70414693 -0.42258578 25.28896784 -0.29246313 29 0 C25.61227103 4.69159716 22.21814817 9.0299782 18 13 C19.934683 17.40087232 22.9608553 20.99632411 25.8984375 24.75390625 C29 28.7919795 29 28.7919795 29 31 C25.19505522 31.55732464 21.78370537 31.77301508 18 31 C15.61109865 28.88027063 14.05756617 26.75008505 12.33984375 24.06640625 C11.16437565 21.87086486 11.16437565 21.87086486 9 21 C9 24.3 9 27.6 9 31 C6.03 31 3.06 31 0 31 C0 20.77 0 10.54 0 0 Z " fill="#FB2874" transform="translate(353,204)"/>
<path d="M0 0 C3.3 0 6.6 0 10 0 C12.82677646 6.21640664 15.39468531 12.46611796 17.75 18.875 C18.06582031 19.71546875 18.38164062 20.5559375 18.70703125 21.421875 C19.00480469 22.22882813 19.30257813 23.03578125 19.609375 23.8671875 C20.0110791 24.95169189 20.0110791 24.95169189 20.42089844 26.05810547 C21 28 21 28 21 31 C18.03 31 15.06 31 12 31 C11.67 29.68 11.34 28.36 11 27 C7.37 27 3.74 27 0 27 C-0.33 28.32 -0.66 29.64 -1 31 C-4.3 31 -7.6 31 -11 31 C-3.70159453 10.06833713 -3.70159453 10.06833713 0 0 Z " fill="#FB2D77" transform="translate(402,204)"/>
<path d="M0 0 C3.63 0 7.26 0 11 0 C12.56861844 4.25339842 14.13514517 8.50755891 15.69970703 12.76245117 C16.23265552 14.21090696 16.76618298 15.65914984 17.30029297 17.10717773 C18.06628987 19.18418047 18.83022617 21.26193083 19.59375 23.33984375 C19.83436157 23.99089584 20.07497314 24.64194794 20.32287598 25.31272888 C22 29.88612829 22 29.88612829 22 31 C18.7 31 15.4 31 12 31 C11.67 29.68 11.34 28.36 11 27 C7.37 27 3.74 27 0 27 C-0.33 28.32 -0.66 29.64 -1 31 C-3.97 31 -6.94 31 -10 31 C-8.59643358 23.85658565 -6.42618635 17.24817592 -3.875 10.4375 C-3.50246094 9.42880859 -3.12992187 8.42011719 -2.74609375 7.38085938 C-1.83589566 4.91865686 -0.91867313 2.45905296 0 0 Z " fill="#FB2D77" transform="translate(277,204)"/>
<path d="M0 0 C3.2175 -0.061875 6.435 -0.12375 9.75 -0.1875 C10.75772461 -0.21481201 11.76544922 -0.24212402 12.80371094 -0.27026367 C14.00688965 -0.28150269 14.00688965 -0.28150269 15.234375 -0.29296875 C16.05131836 -0.3086792 16.86826172 -0.32438965 17.70996094 -0.34057617 C20.56077836 0.08339934 21.91839526 1.03700856 24 3 C24.4609375 5.41015625 24.4609375 5.41015625 24.375 8.0625 C24.35566406 9.37927734 24.35566406 9.37927734 24.3359375 10.72265625 C24 13 24 13 22 15 C22.42652008 18.83868076 24.45335584 22.5032393 26 26 C23.03 26 20.06 26 17 26 C15.6328125 22.92382812 15.6328125 22.92382812 14.265625 19.84765625 C12.97377317 17.52359666 12.97377317 17.52359666 9 17 C9 19.97 9 22.94 9 26 C6.03 26 3.06 26 0 26 C0 17.42 0 8.84 0 0 Z " fill="#DACE29" transform="translate(358,262)"/>
<path d="M0 0 C7 0 7 0 9.43359375 2.1875 C10.42552734 3.5796875 10.42552734 3.5796875 11.4375 5 C12.11683594 5.928125 12.79617188 6.85625 13.49609375 7.8125 C13.99238281 8.534375 14.48867188 9.25625 15 10 C15.33 6.7 15.66 3.4 16 0 C18.64 0 21.28 0 24 0 C24 8.58 24 17.16 24 26 C17 26 17 26 14.56640625 23.8125 C13.90511719 22.884375 13.24382812 21.95625 12.5625 21 C11.88316406 20.071875 11.20382812 19.14375 10.50390625 18.1875 C10.00761719 17.465625 9.51132812 16.74375 9 16 C8.67 19.3 8.34 22.6 8 26 C5.36 26 2.72 26 0 26 C0 17.42 0 8.84 0 0 Z " fill="#D9CC23" transform="translate(421,262)"/>
<path d="M0 0 C2.64 0 5.28 0 8 0 C8 3.3 8 6.6 8 10 C10.64 10 13.28 10 16 10 C16 6.7 16 3.4 16 0 C18.64 0 21.28 0 24 0 C24 8.58 24 17.16 24 26 C21.36 26 18.72 26 16 26 C16 22.7 16 19.4 16 16 C13.69 16 11.38 16 9 16 C9 19.3 9 22.6 9 26 C6.03 26 3.06 26 0 26 C0 17.42 0 8.84 0 0 Z " fill="#D9CD25" transform="translate(245,262)"/>
<path d="M0 0 C1.20785156 0.02449219 2.41570312 0.04898437 3.66015625 0.07421875 C6.25557652 0.26292034 8.46469347 0.55400822 10.9375 1.3125 C10.9375 3.6225 10.9375 5.9325 10.9375 8.3125 C3.5125 7.3225 3.5125 7.3225 -4.0625 6.3125 C-3.7325 7.3025 -3.4025 8.2925 -3.0625 9.3125 C-2.39863281 9.32667969 -1.73476563 9.34085937 -1.05078125 9.35546875 C3.48712625 9.600582 6.27763363 9.87258909 10.125 12.4375 C11.9375 15.3125 11.9375 15.3125 12.0625 18.875 C10.71535287 22.99128289 9.54872897 24.00947106 5.9375 26.3125 C2.78125 26.7734375 2.78125 26.7734375 -0.5625 26.6875 C-1.6659375 26.67460937 -2.769375 26.66171875 -3.90625 26.6484375 C-6.98935657 26.32028507 -9.26708953 25.61632951 -12.0625 24.3125 C-12.0625 22.3325 -12.0625 20.3525 -12.0625 18.3125 C-11.423125 18.4775 -10.78375 18.6425 -10.125 18.8125 C-6.08663348 19.47182515 -2.14442742 19.39253779 1.9375 19.3125 C2.2675 18.3225 2.5975 17.3325 2.9375 16.3125 C2.27363281 16.35890625 1.60976563 16.4053125 0.92578125 16.453125 C-3.32768048 16.62698913 -6.30017032 16.67841825 -10.1875 14.8125 C-12.44943416 11.79658779 -12.65471932 9.990871 -12.7265625 6.3125 C-10.73596178 0.317279 -5.55124643 -0.1721777 0 0 Z " fill="#DACD28" transform="translate(480.0625,261.6875)"/>
<path d="M0 0 C6.27 0 12.54 0 19 0 C19 1.98 19 3.96 19 6 C15.37 6 11.74 6 8 6 C8 7.32 8 8.64 8 10 C10.64 10 13.28 10 16 10 C16 11.98 16 13.96 16 16 C13.36 16 10.72 16 8 16 C8 17.32 8 18.64 8 20 C11.63 20 15.26 20 19 20 C19 21.98 19 23.96 19 26 C12.73 26 6.46 26 0 26 C0 17.42 0 8.84 0 0 Z " fill="#D9CC20" transform="translate(392,262)"/>
<path d="M0 0 C0 2.31 0 4.62 0 7 C-0.84304687 6.97679687 -1.68609375 6.95359375 -2.5546875 6.9296875 C-3.65039062 6.91164063 -4.74609375 6.89359375 -5.875 6.875 C-6.96554688 6.85179687 -8.05609375 6.82859375 -9.1796875 6.8046875 C-12.1371051 6.69939466 -12.1371051 6.69939466 -14 9 C-14.52746604 13.59170287 -14.52746604 13.59170287 -12.8359375 17.7109375 C-10.26626351 19.51517669 -8.41628197 19.29704525 -5.3125 19.1875 C-3.82169922 19.14689453 -3.82169922 19.14689453 -2.30078125 19.10546875 C-1.54152344 19.07066406 -0.78226563 19.03585937 0 19 C0.04254356 20.99954746 0.04080783 23.00041636 0 25 C-2.18794948 27.18794948 -7.24123588 26.36543279 -10.26416016 26.39599609 C-14.11602876 26.32673449 -16.87720427 26.14166802 -19.875 23.625 C-22.91224229 19.87311247 -23.17930121 17.96555991 -23.25 13.1875 C-23.27578125 12.14980469 -23.3015625 11.11210937 -23.328125 10.04296875 C-22.95508335 6.58345153 -22.05728435 4.77879639 -20 2 C-13.92192291 -2.19676751 -6.94083461 -1.79118313 0 0 Z " fill="#DBCE2B" transform="translate(237,262)"/>
<path d="M0 0 C2.64 0 5.28 0 8 0 C8 6.6 8 13.2 8 20 C11.63 20 15.26 20 19 20 C19 21.98 19 23.96 19 26 C12.73 26 6.46 26 0 26 C0 17.42 0 8.84 0 0 Z " fill="#D9CC20" transform="translate(296,262)"/>
<path d="M0 0 C2.64 0 5.28 0 8 0 C8 8.58 8 17.16 8 26 C5.36 26 2.72 26 0 26 C0 17.42 0 8.84 0 0 Z " fill="#DACD26" transform="translate(279,262)"/>
<path d="M0 0 C2.6923481 2.18753283 2.93936827 3.58423955 3.4375 7 C3 10 3 10 1.4375 12.375 C-1.92058549 14.61372366 -4.04745604 14.57491549 -8 14 C-9.9375 12.4375 -9.9375 12.4375 -11 10 C-11.35773097 6.60155579 -11.58904125 4.14126742 -10 1.0625 C-6.75895557 -0.65930485 -3.57577233 -0.66300779 0 0 Z " fill="#5D3222" transform="translate(290,308)"/>
<path d="M0 0 C1.9375 1 1.9375 1 3 3 C3.52960415 6.58042244 3.65886567 9.75978228 1.9375 13 C-1.17909511 14.60856522 -3.56262469 14.42213381 -7 14 C-9.4375 12.375 -9.4375 12.375 -11 10 C-11.60605429 6.36367425 -11.47161336 4.71685231 -9.4375 1.625 C-6.1005787 -0.5996142 -3.93094707 -0.50030235 0 0 Z " fill="#5D3222" transform="translate(382,308)"/>
<path d="M0 0 C7 0 7 0 9.4375 1.0625 C11 3 11 3 11.5 6.4375 C11 10 11 10 9.4375 12.4375 C7 14 7 14 0 14 C0 9.38 0 4.76 0 0 Z " fill="#582C1C" transform="translate(325,308)"/>
<path d="M0 0 C4.29425875 1.07356469 4.74740471 1.5084773 7 5 C7.33 3.35 7.66 1.7 8 0 C9.32 0 10.64 0 12 0 C12 4.62 12 9.24 12 14 C10.68 14 9.36 14 8 14 C5.75 11 5.75 11 4 8 C3.67 9.98 3.34 11.96 3 14 C2.01 14 1.02 14 0 14 C0 9.38 0 4.76 0 0 Z " fill="#613728" transform="translate(310,308)"/>
<path d="M0 0 C1.32 0 2.64 0 4 0 C6.25 3 6.25 3 8 6 C8.33 4.02 8.66 2.04 9 0 C9.99 0 10.98 0 12 0 C12 4.62 12 9.24 12 14 C8 13 8 13 5.75 9.9375 C5.1725 8.968125 4.595 7.99875 4 7 C3.67 9.31 3.34 11.62 3 14 C2.01 14 1.02 14 0 14 C0 9.38 0 4.76 0 0 Z " fill="#562918" transform="translate(388,308)"/>
<path d="M0 0 C1.32 0 2.64 0 4 0 C4 3.63 4 7.26 4 11 C4.99 10.67 5.98 10.34 7 10 C7.33 6.7 7.66 3.4 8 0 C9.32 0 10.64 0 12 0 C12.08114106 1.77007714 12.13925505 3.54122098 12.1875 5.3125 C12.22230469 6.29863281 12.25710938 7.28476562 12.29296875 8.30078125 C12 11 12 11 10.67578125 12.83203125 C8.07386354 14.64548905 6.07797388 14.38474673 3 14 C1.32421875 12.83203125 1.32421875 12.83203125 0 11 C-0.29296875 8.30078125 -0.29296875 8.30078125 -0.1875 5.3125 C-0.16042969 4.31863281 -0.13335937 3.32476562 -0.10546875 2.30078125 C-0.07066406 1.54152344 -0.03585937 0.78226562 0 0 Z " fill="#6A4334" transform="translate(295,308)"/>
<path d="M0 0 C1.32 0 2.64 0 4 0 C4.83764268 1.95649397 5.66999059 3.91525556 6.5 5.875 C6.9640625 6.96554687 7.428125 8.05609375 7.90625 9.1796875 C9 12 9 12 9 14 C7.68 14 6.36 14 5 14 C5 13.01 5 12.02 5 11 C2.02934491 11.34227572 2.02934491 11.34227572 -1 12 C-1.33 12.66 -1.66 13.32 -2 14 C-2.99 14 -3.98 14 -5 14 C-4.34580901 8.93001981 -2.1453591 4.58009223 0 0 Z " fill="#663D2E" transform="translate(343,308)"/>
<path d="M0 0 C2.3431213 0.25561323 4.67843403 0.59270772 7 1 C8.11445498 3.22890995 8.16480286 4.53055106 8.1875 7 C8.20167969 7.70125 8.21585937 8.4025 8.23046875 9.125 C8 11 8 11 6 13 C4.02 13 2.04 13 0 13 C0 8.71 0 4.42 0 0 Z " fill="#FEFDFA" transform="translate(333,268)"/>
<path d="M0 0 C2.64 0 5.28 0 8 0 C8 0.66 8 1.32 8 2 C6.68 2 5.36 2 4 2 C4 2.99 4 3.98 4 5 C5.32 5 6.64 5 8 5 C8 5.99 8 6.98 8 8 C6.68 8 5.36 8 4 8 C4 9.98 4 11.96 4 14 C2.68 14 1.36 14 0 14 C0 9.38 0 4.76 0 0 Z " fill="#663E2F" transform="translate(268,308)"/>
<path d="M0 0 C3.3 0 6.6 0 10 0 C10 0.99 10 1.98 10 3 C9.01 3 8.02 3 7 3 C7 6.63 7 10.26 7 14 C5.68 14 4.36 14 3 14 C3 10.37 3 6.74 3 3 C2.01 3 1.02 3 0 3 C0 2.01 0 1.02 0 0 Z " fill="#6A4335" transform="translate(353,308)"/>
<path d="M0 0 C1.32 0 2.64 0 4 0 C4 4.62 4 9.24 4 14 C2.68 14 1.36 14 0 14 C0 9.38 0 4.76 0 0 Z " fill="#714B3E" transform="translate(365,308)"/>
<path d="M0 0 C1.65 0 3.3 0 5 0 C5 3.63 5 7.26 5 11 C3.35 11 1.7 11 0 11 C0 7.37 0 3.74 0 0 Z " fill="#DACD26" transform="translate(454,262)"/>
<path d="M0 0 C1.2065625 0.0309375 1.2065625 0.0309375 2.4375 0.0625 C3.0625 2.9375 3.0625 2.9375 3.4375 6.0625 C2.7775 6.7225 2.1175 7.3825 1.4375 8.0625 C-1.1875 7.6875 -1.1875 7.6875 -3.5625 7.0625 C-3.60504356 5.06295254 -3.60330783 3.06208364 -3.5625 1.0625 C-2.5625 0.0625 -2.5625 0.0625 0 0 Z " fill="#F7F5F4" transform="translate(378.5625,310.9375)"/>
<path d="M0 0 C1.66611905 -0.042721 3.33382885 -0.04063832 5 0 C6 1 6 1 6.0625 4.0625 C6.041875 5.031875 6.02125 6.00125 6 7 C3.625 7.625 3.625 7.625 1 8 C0.34 7.34 -0.32 6.68 -1 6 C-0.625 2.875 -0.625 2.875 0 0 Z " fill="#F5F3F2" transform="translate(283,311)"/>
<path d="M0 0 C1.32 0.33 2.64 0.66 4 1 C4.625 3.375 4.625 3.375 5 6 C4.34 6.66 3.68 7.32 3 8 C2.01 8 1.02 8 0 8 C0 5.36 0 2.72 0 0 Z " fill="#EAE5E3" transform="translate(328,311)"/>
<path d="M0 0 C1.98 0 3.96 0 6 0 C6.33 1.32 6.66 2.64 7 4 C4.69 4 2.38 4 0 4 C0 2.68 0 1.36 0 0 Z " fill="#FCFBEF" transform="translate(367,268)"/>
<path d="M0 0 C0.66 0.33 1.32 0.66 2 1 C-0.97 3.64 -3.94 6.28 -7 9 C-7.66 8.34 -8.32 7.68 -9 7 C-6.03 4.69 -3.06 2.38 0 0 Z " fill="#F1C85B" transform="translate(82,234)"/>
<path d="M0 0 C2.35953094 2.35953094 2.49141413 3.77895617 3 7 C1.35 7 -0.3 7 -2 7 C-1.34 4.69 -0.68 2.38 0 0 Z " fill="#FEE4EE" transform="translate(282,216)"/>
<path d="M0 0 C2 2 2 2 2.125 4.625 C2.08375 5.40875 2.0425 6.1925 2 7 C0.68 7 -0.64 7 -2 7 C-1.125 1.125 -1.125 1.125 0 0 Z " fill="#FEE0EB" transform="translate(407,216)"/>
<path d="M0 0 C0.33 0 0.66 0 1 0 C0.67 3.3 0.34 6.6 0 10 C-0.99 9.34 -1.98 8.68 -3 8 C-1.125 1.125 -1.125 1.125 0 0 Z " fill="#D9F1FD" transform="translate(138,275)"/>
</svg>
